<svg width="16" height="16" viewBox="0 0 16 16" fill="none" xmlns="http://www.w3.org/2000/svg">
<path d="M13.0391 7.06262H8.9375C8.56454 7.06262 8.20685 6.91446 7.94313 6.65074C7.67941 6.38702 7.53125 6.02933 7.53125 5.65637V1.55481C7.53125 1.52373 7.5189 1.49392 7.49693 1.47195C7.47495 1.44997 7.44514 1.43762 7.41406 1.43762H4.71875C4.22147 1.43762 3.74456 1.63517 3.39292 1.9868C3.04129 2.33843 2.84375 2.81534 2.84375 3.31262V12.6876C2.84375 13.1849 3.04129 13.6618 3.39292 14.0134C3.74456 14.3651 4.22147 14.5626 4.71875 14.5626H11.2812C11.7785 14.5626 12.2554 14.3651 12.6071 14.0134C12.9587 13.6618 13.1562 13.1849 13.1562 12.6876V7.17981C13.1562 7.14873 13.1439 7.11892 13.1219 7.09694C13.0999 7.07497 13.0701 7.06262 13.0391 7.06262ZM10.3437 11.7501H5.65625C5.53193 11.7501 5.4127 11.7007 5.32479 11.6128C5.23689 11.5249 5.1875 11.4057 5.1875 11.2814C5.1875 11.157 5.23689 11.0378 5.32479 10.9499C5.4127 10.862 5.53193 10.8126 5.65625 10.8126H10.3437C10.4681 10.8126 10.5873 10.862 10.6752 10.9499C10.7631 11.0378 10.8125 11.157 10.8125 11.2814C10.8125 11.4057 10.7631 11.5249 10.6752 11.6128C10.5873 11.7007 10.4681 11.7501 10.3437 11.7501ZM10.3437 9.40637H5.65625C5.53193 9.40637 5.4127 9.35698 5.32479 9.26908C5.23689 9.18117 5.1875 9.06194 5.1875 8.93762C5.1875 8.8133 5.23689 8.69407 5.32479 8.60616C5.4127 8.51826 5.53193 8.46887 5.65625 8.46887H10.3437C10.4681 8.46887 10.5873 8.51826 10.6752 8.60616C10.7631 8.69407 10.8125 8.8133 10.8125 8.93762C10.8125 9.06194 10.7631 9.18117 10.6752 9.26908C10.5873 9.35698 10.4681 9.40637 10.3437 9.40637Z" fill="#2D3748"/>
<path d="M12.7818 6.026L8.56865 1.81282C8.56046 1.80467 8.55004 1.79913 8.53871 1.79689C8.52737 1.79465 8.51563 1.79581 8.50495 1.80022C8.49428 1.80464 8.48514 1.81211 8.4787 1.8217C8.47226 1.83129 8.4688 1.84257 8.46875 1.85412V5.65715C8.46875 5.78147 8.51814 5.9007 8.60604 5.98861C8.69395 6.07652 8.81318 6.1259 8.9375 6.1259H12.7405C12.7521 6.12585 12.7634 6.12239 12.773 6.11595C12.7825 6.10951 12.79 6.10037 12.7944 6.0897C12.7988 6.07902 12.8 6.06728 12.7978 6.05594C12.7955 6.04461 12.79 6.03419 12.7818 6.026V6.026Z" fill="#2D3748"/>
</svg>
