<svg width="13" height="13" fill="none" xmlns="http://www.w3.org/2000/svg"><path d="M10.814 8.5l-.114-.14c-.516-.623-.828-1-.828-2.765 0-.914-.219-1.664-.65-2.227-.317-.416-.747-.73-1.313-.964a.07.07 0 01-.02-.015c-.203-.682-.76-1.14-1.39-1.14-.628 0-1.185.458-1.389 1.139a.073.073 0 01-.019.015c-1.32.544-1.963 1.588-1.963 3.19 0 1.767-.312 2.144-.828 2.767l-.114.139a.824.824 0 00-.11.881.876.876 0 00.805.494h7.24c.35 0 .656-.189.801-.492a.823.823 0 00-.108-.883zM6.5 11.75a1.876 1.876 0 001.65-.987.094.094 0 00-.082-.138H4.932a.094.094 0 00-.083.138 1.877 1.877 0 001.65.987z" fill="#718096"/></svg>