<svg width="15" height="16" fill="none" xmlns="http://www.w3.org/2000/svg"><g clip-path="url(#clip0_2_94)" fill="#4FD1C5"><path d="M3.047 15.032h-.938a.703.703 0 01-.703-.704V10.11a.703.703 0 01.703-.703h.938a.703.703 0 01.703.703v4.219a.703.703 0 01-.703.703zm6.563-.002h-.938a.703.703 0 01-.703-.702V7.296a.703.703 0 01.703-.703h.937a.703.703 0 01.703.703v7.032a.703.703 0 01-.703.703zm3.28.001h-.937a.703.703 0 01-.703-.703V4.015a.703.703 0 01.703-.703h.937a.703.703 0 01.704.704v10.312a.703.703 0 01-.704.703zm-6.562 0H5.39a.703.703 0 01-.703-.703V1.672A.703.703 0 015.39.969h.938a.703.703 0 01.703.703v12.656a.703.703 0 01-.703.703z"/></g><defs><clipPath id="clip0_2_94"><path fill="#fff" transform="translate(0 .5)" d="M0 0h15v15H0z"/></clipPath></defs></svg>