<svg width="24" height="23" fill="none" xmlns="http://www.w3.org/2000/svg"><path d="M13.406 10.106h6.152a.164.164 0 01.164.164v8.262a2.8 2.8 0 01-2.8 2.8H7.078a2.8 2.8 0 01-2.8-2.8V4.469a2.8 2.8 0 012.8-2.8h4.043a.164.164 0 01.164.163v6.153a2.121 2.121 0 002.121 2.12zm-4.922 7.031h7.031a.715.715 0 000-1.43h-7.03a.715.715 0 000 1.43zm0-3.516h7.031a.715.715 0 000-1.43h-7.03a.715.715 0 000 1.43z" fill="#fff" stroke="#4FD1C5" stroke-width=".023"/><path d="M12.844 2.228l6.32 6.32-6.32-6.32zm0 0s0 0 0 0m0 0h0m0 0a.076.076 0 00-.082-.017.077.077 0 00-.048.07v5.705a.691.691 0 00.692.691h5.704a.076.076 0 00.075-.09.076.076 0 00-.02-.04l-6.32-6.32z" fill="#fff" stroke="#4FD1C5" stroke-width=".023"/></svg>