<svg width="16" height="16" fill="none" xmlns="http://www.w3.org/2000/svg"><path d="M13.04 7.063H8.937A1.406 1.406 0 017.53 5.656V1.555a.117.117 0 00-.117-.117H4.72a1.875 1.875 0 00-1.875 1.875v9.375a1.875 1.875 0 001.875 1.875h6.562a1.875 1.875 0 001.875-1.875V7.18a.117.117 0 00-.117-.117zm-2.696 4.687H5.656a.469.469 0 010-.937h4.688a.469.469 0 110 .937zm0-2.344H5.656a.469.469 0 010-.937h4.688a.469.469 0 110 .937z" fill="#2D3748"/><path d="M12.782 6.026L8.569 1.813a.059.059 0 00-.1.041v3.803a.469.469 0 00.469.469h3.803a.059.059 0 00.057-.07.059.059 0 00-.016-.03z" fill="#2D3748"/></svg>