<svg width="21" height="20" fill="none" xmlns="http://www.w3.org/2000/svg"><g clip-path="url(#clip0_10_1048)"><path d="M18.687 0H2.313A1.813 1.813 0 00.5 1.811v16.374C.5 19.188 1.31 20 2.313 20h16.374a1.813 1.813 0 001.813-1.813V1.812A1.813 1.813 0 0018.687 0z" fill="#DC395F"/><path d="M7.184 6.293c.665 0 1.221-.522 1.221-1.204 0-.683-.556-1.204-1.221-1.204s-1.222.521-1.222 1.204c0 .682.557 1.204 1.222 1.204zM4.65 12.739a4.134 4.134 0 00-.107.905c0 1.06.574 1.764 1.796 1.764 1.014 0 1.835-.602 2.427-1.573l-.362 1.449h2.012l1.15-4.612c.288-1.168.845-1.774 1.69-1.774.664 0 1.077.413 1.077 1.096 0 .197-.018.413-.09.646l-.592 2.12c-.09.306-.126.611-.126.899 0 1.006.593 1.742 1.832 1.742 1.06 0 1.905-.682 2.372-2.317l-.79-.305c-.396 1.095-.737 1.293-1.007 1.293-.27 0-.413-.18-.413-.538 0-.162.036-.342.09-.558l.575-2.065c.144-.485.198-.915.198-1.31 0-1.546-.935-2.352-2.067-2.352-1.06 0-2.138.956-2.677 1.962l.396-1.806H8.96l-.43 1.591h1.437l-.886 3.544c-.695 1.545-1.971 1.57-2.132 1.534-.263-.06-.431-.159-.431-.5 0-.198.036-.482.126-.823l1.347-5.346H4.58l-.432 1.591h1.42L4.65 12.74" fill="#fff"/></g><defs><clipPath id="clip0_10_1048"><path fill="#fff" transform="translate(.5)" d="M0 0h20v20H0z"/></clipPath></defs></svg>