<svg width="21" height="21" fill="none" xmlns="http://www.w3.org/2000/svg"><g clip-path="url(#clip0_10_1038)"><path d="M20.26 9.919L11.395.989l-.858-.864-6.672 6.721L.816 9.92a.827.827 0 000 1.162l6.094 6.14 3.628 3.654 6.67-6.722.104-.103 2.947-2.965a.823.823 0 000-1.166zm-9.722 3.649L7.492 10.5l3.046-3.068 3.044 3.068-3.044 3.068z" fill="#2684FF"/><path d="M10.537 7.432a5.184 5.184 0 01-1.502-3.637A5.184 5.184 0 0110.515.15L3.852 6.86l3.626 3.654 3.06-3.082z" fill="url(#paint0_linear_10_1038)"/><path d="M13.59 10.492l-3.053 3.076a5.186 5.186 0 011.502 3.653c0 1.37-.54 2.683-1.502 3.652l6.682-6.728-3.63-3.653z" fill="url(#paint1_linear_10_1038)"/></g><defs><linearGradient id="paint0_linear_10_1038" x1="9.992" y1="4.328" x2="5.708" y2="8.579" gradientUnits="userSpaceOnUse"><stop offset=".18" stop-color="#0052CC"/><stop offset="1" stop-color="#2684FF"/></linearGradient><linearGradient id="paint1_linear_10_1038" x1="776.603" y1="900.925" x2="1212.74" y2="1181.57" gradientUnits="userSpaceOnUse"><stop offset=".18" stop-color="#0052CC"/><stop offset="1" stop-color="#2684FF"/></linearGradient><clipPath id="clip0_10_1038"><path fill="#fff" transform="translate(.5)" d="M0 0h20v21H0z"/></clipPath></defs></svg>