<svg width="16" height="15" fill="none" xmlns="http://www.w3.org/2000/svg"><path d="M12.688 2.343H3.312c-.776 0-1.406.63-1.406 1.406v8.438c0 .777.63 1.406 1.407 1.406h9.374c.777 0 1.407-.63 1.407-1.406V3.749c0-.776-.63-1.406-1.406-1.406z" fill="#fff" stroke="#2D3748" stroke-width=".75" stroke-linejoin="round"/><path d="M12.155 2.343h-8.31c-1.069 0-1.939.883-1.939 1.969v1.781h.469c0-.469.469-.937.938-.937h9.374c.47 0 .938.468.938.937h.469V4.312c0-1.086-.87-1.969-1.94-1.969zM9.172 7.5a.703.703 0 100-1.407.703.703 0 000 1.406zm2.344 0a.703.703 0 100-1.407.703.703 0 000 1.406zM9.172 9.843a.703.703 0 100-1.407.703.703 0 000 1.407zm2.344 0a.703.703 0 100-1.406.703.703 0 000 1.406zm-7.032 0a.703.703 0 100-1.407.703.703 0 000 1.407zm2.344 0a.703.703 0 100-1.407.703.703 0 000 1.407zm-2.344 2.344a.703.703 0 100-1.406.703.703 0 000 1.406zm2.344 0a.703.703 0 100-1.406.703.703 0 000 1.406zm2.344 0a.703.703 0 100-1.406.703.703 0 000 1.406z" fill="#2D3748"/><path d="M4.25 1.406v.937m7.5-.937v.937" stroke="#2D3748" stroke-width=".75" stroke-linecap="round" stroke-linejoin="round"/></svg>