<svg width="21" height="20" fill="none" xmlns="http://www.w3.org/2000/svg"><g clip-path="url(#clip0_29_1193)"><path d="M10.5 6.667c.917 0 1.667-.75 1.667-1.667s-.75-1.667-1.667-1.667c-.916 0-1.666.75-1.666 1.667s.75 1.667 1.666 1.667zm0 1.666c-.916 0-1.666.75-1.666 1.667s.75 1.667 1.666 1.667c.917 0 1.667-.75 1.667-1.667s-.75-1.667-1.667-1.667zm0 5c-.916 0-1.666.75-1.666 1.667s.75 1.667 1.666 1.667c.917 0 1.667-.75 1.667-1.667s-.75-1.667-1.667-1.667z" fill="#A0AEC0"/></g><defs><clipPath id="clip0_29_1193"><path fill="#fff" transform="translate(.5)" d="M0 0h20v20H0z"/></clipPath></defs></svg>