<svg width="15" height="16" fill="none" xmlns="http://www.w3.org/2000/svg"><g clip-path="url(#clip0_2_155)" fill="#4FD1C5"><path d="M13.993 1.622a.14.14 0 00-.104-.108c-1.716-.42-5.68 1.076-7.828 3.223-.384.38-.733.793-1.044 1.233-.663-.058-1.325-.01-1.89.237-1.593.7-2.056 2.53-2.185 3.317a.282.282 0 00.309.328l2.557-.282c.002.193.014.386.035.577a.572.572 0 00.167.352l.99.988a.574.574 0 00.352.167c.191.021.383.033.574.035l-.28 2.555a.283.283 0 00.328.309c.785-.126 2.618-.59 3.315-2.183.246-.564.296-1.224.24-1.883.441-.311.855-.66 1.236-1.044 2.155-2.144 3.641-6.02 3.228-7.821zM8.615 6.885a1.406 1.406 0 111.988-1.99 1.406 1.406 0 01-1.988 1.99z"/><path d="M4.933 12.203c-.16.16-.418.223-.728.277a1.025 1.025 0 01-1.186-1.187c.048-.267.19-.641.277-.729a.128.128 0 00-.107-.218c-.39.047-.752.224-1.03.501-.688.69-.753 3.248-.753 3.248s2.56-.066 3.248-.755a1.75 1.75 0 00.502-1.03c.01-.122-.138-.195-.223-.107z"/></g><defs><clipPath id="clip0_2_155"><path fill="#fff" transform="translate(0 .5)" d="M0 0h15v15H0z"/></clipPath></defs></svg>