<svg width="13" height="13" fill="none" xmlns="http://www.w3.org/2000/svg"><path d="M6.5 4.625a1.875 1.875 0 100 3.75 1.875 1.875 0 000-3.75zM10.548 6.5c-.001.175-.014.35-.039.524l1.142.893a.272.272 0 01.061.347l-1.08 1.863a.272.272 0 01-.33.116l-1.343-.54a4.069 4.069 0 01-.91.532l-.2 1.425a.28.28 0 01-.27.23H5.42a.281.281 0 01-.27-.223l-.2-1.424a3.971 3.971 0 01-.91-.532l-1.342.54a.273.273 0 01-.331-.116L1.287 8.27a.272.272 0 01.062-.346L2.49 7.03a4.092 4.092 0 01-.038-.53 3.88 3.88 0 01.038-.524l-1.141-.894a.272.272 0 01-.062-.346l1.08-1.864a.273.273 0 01.331-.116l1.342.54a4.13 4.13 0 01.91-.532l.2-1.424a.28.28 0 01.27-.232h2.16a.281.281 0 01.269.224l.2 1.424c.327.136.633.315.912.532l1.34-.539a.273.273 0 01.332.115l1.08 1.864a.272.272 0 01-.062.347l-1.142.893c.025.176.038.353.039.531z" fill="#718096"/></svg>