<svg width="21" height="21" fill="none" xmlns="http://www.w3.org/2000/svg"><g clip-path="url(#clip0_10_1030)" fill-rule="evenodd" clip-rule="evenodd"><path d="M7.832 0c-1.105 0-2 .918-2 2.049 0 1.13.896 2.049 2.001 2.05h2v-2.05C9.835.92 8.94.002 7.834 0zm0 5.466H2.5c-1.106 0-2.001.919-2 2.05-.002 1.13.893 2.048 1.999 2.05h5.333c1.106-.001 2.002-.919 2-2.05.002-1.131-.894-2.05-2-2.05z" fill="#36C5F0"/><path d="M20.5 7.516c0-1.13-.895-2.048-2-2.05-1.106.002-2.002.92-2 2.05v2.05h2c1.105 0 2-.918 2-2.05zm-5.334 0V2.05c.001-1.13-.894-2.048-2-2.05-1.105 0-2 .919-2 2.05v5.466c-.001 1.131.894 2.049 2 2.05 1.106 0 2.001-.918 2-2.05z" fill="#2EB67D"/><path d="M13.166 20.5c1.106 0 2.001-.919 2-2.05.001-1.13-.894-2.048-2-2.05h-2v2.05c-.001 1.13.894 2.048 2 2.05zm0-5.467H18.5c1.105-.001 2-.92 2-2.05.001-1.131-.894-2.049-2-2.05h-5.333c-1.106 0-2.001.918-2 2.05-.001 1.13.893 2.049 2 2.05z" fill="#ECB22E"/><path d="M.5 12.983c-.001 1.13.895 2.049 2 2.05 1.106-.001 2.001-.92 2-2.05v-2.05h-2c-1.105.001-2.001.919-2 2.05zm5.333 0v5.467c-.001 1.13.894 2.048 2 2.05 1.105 0 2-.919 2-2.05v-5.465c.002-1.131-.894-2.05-2-2.05-1.106 0-2 .917-2 2.048z" fill="#E01E5A"/></g><defs><clipPath id="clip0_10_1030"><path fill="#fff" transform="translate(.5)" d="M0 0h20v20.5H0z"/></clipPath></defs></svg>