<svg width="13" height="12" fill="none" xmlns="http://www.w3.org/2000/svg"><path d="M8.296 1.513A2.412 2.412 0 006.5.75c-.707 0-1.346.27-1.8.759-.46.494-.683 1.167-.63 1.893C4.174 4.835 5.264 6 6.5 6c1.236 0 2.324-1.165 2.43-2.598.053-.72-.172-1.39-.634-1.889zm2.329 9.737h-8.25a.727.727 0 01-.567-.262.828.828 0 01-.169-.682c.198-1.097.815-2.019 1.786-2.666.862-.575 1.954-.89 3.075-.89 1.12 0 2.213.316 3.075.89.97.647 1.587 1.569 1.785 2.666a.827.827 0 01-.168.682.727.727 0 01-.567.261z" fill="#718096"/></svg>