<svg width="15" height="16" fill="none" xmlns="http://www.w3.org/2000/svg"><path d="M9.745 2.392c-.57-.616-1.367-.955-2.245-.955-.884 0-1.683.337-2.25.949-.574.618-.854 1.459-.788 2.367C4.592 6.543 5.955 8 7.5 8c1.544 0 2.905-1.457 3.037-3.247.066-.9-.215-1.738-.792-2.361zm2.911 12.17H2.343a.908.908 0 01-.709-.326 1.035 1.035 0 01-.21-.853c.247-1.372 1.019-2.524 2.232-3.333C4.733 9.332 6.098 8.937 7.5 8.937c1.401 0 2.766.395 3.843 1.113 1.213.808 1.985 1.96 2.232 3.332.057.315-.02.626-.21.853a.909.909 0 01-.71.327z" fill="#4FD1C5"/></svg>