<svg width="24" height="23" fill="none" xmlns="http://www.w3.org/2000/svg"><path d="M4.946 4.818H19.01c.164 0 .328.01.491.031a2.901 2.901 0 00-3.406-2.441L4.529 4.382h-.013A2.9 2.9 0 002.71 5.531a3.848 3.848 0 012.235-.713zm14.063 1.057H4.947a2.816 2.816 0 00-2.813 2.812v8.438a2.816 2.816 0 002.813 2.812h14.062a2.816 2.816 0 002.813-2.812V8.687a2.816 2.816 0 00-2.813-2.812zm-2.087 8.437a1.406 1.406 0 110-2.812 1.406 1.406 0 010 2.812z" fill="#fff"/><path d="M2.156 11.651V7.28c0-.952.527-2.549 2.358-2.895 1.553-.291 3.091-.291 3.091-.291s1.011.703.176.703-.813 1.077 0 1.077 0 1.032 0 1.032L4.507 10.62l-2.351 1.03z" fill="#fff"/></svg>