<svg width="24" height="23" fill="none" xmlns="http://www.w3.org/2000/svg"><path d="M12 2.359a9.14 9.14 0 100 18.281 9.14 9.14 0 000-18.28z" fill="#fff" stroke="#4FD1C5" stroke-width=".75" stroke-miterlimit="10"/><path d="M12 2.359c-2.552 0-4.951 4.092-4.951 9.14 0 5.048 2.399 9.14 4.95 9.14 2.553 0 4.952-4.092 4.952-9.14 0-5.048-2.4-9.14-4.951-9.14z" fill="#fff" stroke="#4FD1C5" stroke-width=".75" stroke-miterlimit="10"/><path d="M5.906 5.406C7.586 6.599 9.702 7.31 12 7.31c2.298 0 4.413-.711 6.094-1.904" fill="#fff"/><path d="M5.906 5.406C7.586 6.599 9.702 7.31 12 7.31c2.298 0 4.413-.711 6.094-1.904m0 12.188c-1.68-1.193-3.796-1.904-6.094-1.904-2.298 0-4.414.711-6.094 1.904" stroke="#4FD1C5" stroke-width=".75" stroke-linecap="round" stroke-linejoin="round"/><path d="M12 2.359v18.28m9.14-9.14H2.86" stroke="#4FD1C5" stroke-width=".75" stroke-miterlimit="10"/></svg>