<svg width="21" height="20" fill="none" xmlns="http://www.w3.org/2000/svg"><g clip-path="url(#clip0_10_493)"><path d="M4.041.5h12.917A3.539 3.539 0 0120.5 4.042v12.416A3.539 3.539 0 0116.958 20H4.041A3.539 3.539 0 01.5 16.458V4.042A3.539 3.539 0 014.04.5z" fill="#470137"/><path d="M11.017 5.625l-2.5 4.125 2.666 4.375a.143.143 0 01.017.1c-.008.033-.042.008-.092.017H9.2c-.134 0-.225-.009-.284-.092-.175-.35-.358-.692-.533-1.042a33.836 33.836 0 00-.567-1.05c-.2-.358-.4-.716-.6-1.083H7.2c-.175.358-.367.717-.559 1.075-.191.358-.383.717-.566 1.067-.192.35-.384.708-.575 1.05-.034.083-.1.091-.192.091H3.475c-.034 0-.059.017-.059-.025a.116.116 0 01.017-.091l2.592-4.25L3.5 5.617c-.025-.034-.034-.067-.017-.084.017-.025.05-.033.083-.033h1.892c.042 0 .083.008.117.017a.236.236 0 01.083.075c.158.358.342.716.533 1.075.2.358.392.708.6 1.058.2.35.384.7.559 1.058h.016c.175-.366.359-.725.542-1.075.183-.35.375-.7.567-1.05.191-.35.375-.708.558-1.05a.141.141 0 01.05-.083.159.159 0 01.108-.017h1.759a.077.077 0 01.091.059c.009.008-.008.041-.024.058zm3.849 8.792a4.144 4.144 0 01-1.791-.375 2.906 2.906 0 01-1.259-1.134c-.308-.508-.458-1.141-.458-1.9a3.423 3.423 0 011.783-3.05c.584-.325 1.284-.483 2.109-.483.041 0 .1 0 .175.008.075.009.158.009.258.017V4.867c0-.059.025-.092.083-.092h1.692c.042-.008.075.025.083.058v7.95c0 .15.009.317.017.5.017.175.025.342.033.484 0 .058-.025.108-.083.133a6.365 6.365 0 01-1.358.4 7.35 7.35 0 01-1.284.117zm.817-1.667V9.083a2.132 2.132 0 00-.225-.041 2.819 2.819 0 00-.275-.017c-.325 0-.65.067-.942.217-.283.141-.525.35-.708.616-.183.267-.275.625-.275 1.059a2.33 2.33 0 00.142.858c.083.225.208.425.375.592.158.15.35.266.566.333.225.075.459.108.692.108.125 0 .242-.008.35-.016a.73.73 0 00.3-.042z" fill="#FF61F6"/></g><defs><clipPath id="clip0_10_493"><path fill="#fff" transform="translate(.5 .5)" d="M0 0h20v19.5H0z"/></clipPath></defs></svg>